<?xml version="1.0" encoding="UTF-8"?>
<svg xmlns="http://www.w3.org/2000/svg" xmlns:xlink="http://www.w3.org/1999/xlink" viewBox="0 0 480 480" width="480px" height="480px">
<g id="surface33411883">
<path style=" stroke:none;fill-rule:nonzero;fill:rgb(80.000001%,80.000001%,80.000001%);fill-opacity:1;" d="M 240 242.398438 C 238.675781 242.398438 237.601562 241.324219 237.601562 240 C 237.601562 238.675781 238.675781 237.601562 240 237.601562 C 241.324219 237.601562 242.398438 238.675781 242.398438 240 C 242.398438 241.324219 241.324219 242.398438 240 242.398438 Z M 240 242.398438 "/>
<path style=" stroke:none;fill-rule:nonzero;fill:rgb(100%,100%,100%);fill-opacity:1;" d="M 12.605469 469.261719 L 44.644531 352.304688 C 24.878906 318.082031 14.484375 279.242188 14.5 239.460938 C 14.558594 115.011719 115.828125 13.765625 240.289062 13.765625 C 300.691406 13.789062 357.367188 37.300781 400 79.957031 C 442.621094 122.625 466.09375 179.324219 466.070312 239.640625 C 466.023438 364.089844 364.726562 465.351562 240.289062 465.351562 C 240.277344 465.351562 240.289062 465.351562 240.289062 465.351562 L 240.195312 465.351562 C 202.414062 465.339844 165.277344 455.859375 132.300781 437.867188 Z M 12.605469 469.261719 "/>
<path style=" stroke:none;fill-rule:nonzero;fill:rgb(100%,100%,100%);fill-opacity:1;" d="M 12.605469 475.207031 C 11.039062 475.207031 9.515625 474.589844 8.386719 473.449219 C 6.898438 471.9375 6.316406 469.738281 6.875 467.703125 L 38.257812 353.113281 C 18.804688 318.554688 8.539062 279.3125 8.5625 239.472656 C 8.613281 111.730469 112.558594 7.820312 240.289062 7.820312 C 302.246094 7.84375 360.460938 31.972656 404.210938 75.757812 C 447.960938 119.554688 472.042969 177.753906 472.015625 239.640625 C 471.96875 367.371094 368.011719 471.296875 240.289062 471.296875 C 202.367188 471.285156 164.847656 461.925781 131.550781 444.21875 L 14.117188 475.007812 C 13.617188 475.148438 13.117188 475.207031 12.605469 475.207031 Z M 12.605469 475.207031 "/>
<path style=" stroke:none;fill-rule:nonzero;fill:rgb(81.176472%,84.705883%,86.274511%);fill-opacity:1;" d="M 240.289062 13.765625 C 300.691406 13.789062 357.367188 37.300781 400 79.957031 C 442.621094 122.625 466.09375 179.324219 466.070312 239.640625 C 466.023438 364.089844 364.726562 465.351562 240.289062 465.351562 L 240.195312 465.351562 C 202.414062 465.339844 165.277344 455.859375 132.300781 437.867188 L 12.605469 469.261719 L 44.644531 352.304688 C 24.878906 318.082031 14.484375 279.242188 14.5 239.460938 C 14.558594 115.011719 115.828125 13.765625 240.289062 13.765625 M 240.289062 465.351562 L 240.289062 465.351562 M 240.289062 465.351562 L 240.289062 465.351562 M 240.289062 1.875 C 109.289062 1.875 2.664062 108.449219 2.605469 239.460938 C 2.59375 279.503906 12.703125 318.960938 31.871094 353.886719 L 1.132812 466.136719 C 0.015625 470.238281 1.15625 474.613281 4.152344 477.636719 C 6.410156 479.917969 9.46875 481.167969 12.605469 481.167969 C 13.617188 481.167969 14.628906 481.035156 15.628906 480.773438 L 130.824219 450.570312 C 164.457031 468.027344 202.152344 477.242188 240.195312 477.253906 C 371.292969 477.253906 477.914062 370.667969 477.976562 239.652344 C 478 176.160156 453.300781 116.464844 408.429688 71.558594 C 363.539062 26.644531 303.828125 1.898438 240.289062 1.875 Z M 240.289062 1.875 "/>
<path style=" stroke:none;fill-rule:nonzero;fill:rgb(25.098041%,76.47059%,31.764707%);fill-opacity:1;" d="M 373.027344 106.902344 C 337.589844 71.441406 290.488281 51.902344 240.351562 51.890625 C 136.84375 51.890625 52.660156 136.039062 52.613281 239.472656 C 52.601562 274.925781 62.519531 309.433594 81.308594 339.320312 L 85.777344 346.417969 L 66.8125 415.640625 L 137.839844 397.019531 L 144.703125 401.085938 C 173.503906 418.1875 206.542969 427.226562 240.21875 427.238281 L 240.289062 427.238281 C 343.726562 427.238281 427.910156 343.078125 427.945312 239.628906 C 427.957031 189.503906 408.46875 142.363281 373.027344 106.902344 Z M 373.027344 106.902344 "/>
<path style=" stroke:none;fill-rule:evenodd;fill:rgb(100%,100%,100%);fill-opacity:1;" d="M 183.851562 145.113281 C 179.628906 135.71875 175.183594 135.527344 171.152344 135.359375 C 167.855469 135.21875 164.097656 135.230469 160.339844 135.230469 C 156.582031 135.230469 150.472656 136.644531 145.296875 142.292969 C 140.125 147.941406 125.546875 161.582031 125.546875 189.339844 C 125.546875 217.09375 145.761719 243.921875 148.578125 247.679688 C 151.398438 251.4375 187.609375 310.21875 244.953125 332.839844 C 292.601562 351.628906 302.308594 347.894531 312.652344 346.953125 C 323 346.015625 346.035156 333.3125 350.730469 320.136719 C 355.429688 306.960938 355.429688 295.675781 354.027344 293.320312 C 352.609375 290.964844 348.851562 289.5625 343.214844 286.734375 C 337.578125 283.902344 309.835938 270.261719 304.660156 268.382812 C 299.488281 266.503906 295.730469 265.566406 291.960938 271.214844 C 288.203125 276.851562 277.394531 289.5625 274.101562 293.320312 C 270.804688 297.089844 267.511719 297.566406 261.875 294.738281 C 256.238281 291.90625 238.066406 285.960938 216.507812 266.742188 C 199.738281 251.792969 188.417969 233.328125 185.125 227.679688 C 181.828125 222.039062 184.765625 218.984375 187.597656 216.167969 C 190.128906 213.632812 193.234375 209.578125 196.066406 206.285156 C 198.882812 202.988281 199.824219 200.636719 201.703125 196.878906 C 203.582031 193.109375 202.640625 189.8125 201.226562 186.996094 C 199.835938 184.164062 188.871094 156.265625 183.851562 145.113281 Z M 183.851562 145.113281 "/>
</g>
</svg>
